<?xml version="1.0" standalone="no"?>
<!DOCTYPE svg PUBLIC "-//W3C//DTD SVG 1.1//EN" "http://www.w3.org/Graphics/SVG/1.1/DTD/svg11.dtd">
<svg viewBox="0 0 592 367" version="1.1" xmlns="http://www.w3.org/2000/svg" xmlns:xlink="http://www.w3.org/1999/xlink">
	<polyline fill="none" stroke="rgb(229,229,229)" stroke-width="0.5" stroke-opacity="1" points="53,34 53,314"/>
	<polyline fill="none" stroke="rgb(229,229,229)" stroke-width="0.5" stroke-opacity="1" points="78.55,34 78.55,314"/>
	<polyline fill="none" stroke="rgb(229,229,229)" stroke-width="0.5" stroke-opacity="1" points="104.1,34 104.1,314"/>
	<polyline fill="none" stroke="rgb(229,229,229)" stroke-width="0.5" stroke-opacity="1" points="129.65,34 129.65,314"/>
	<polyline fill="none" stroke="rgb(229,229,229)" stroke-width="0.5" stroke-opacity="1" points="155.2,34 155.2,314"/>
	<polyline fill="none" stroke="rgb(229,229,229)" stroke-width="0.5" stroke-opacity="1" points="180.75,34 180.75,314"/>
	<polyline fill="none" stroke="rgb(229,229,229)" stroke-width="0.5" stroke-opacity="1" points="206.3,34 206.3,314"/>
	<polyline fill="none" stroke="rgb(229,229,229)" stroke-width="0.5" stroke-opacity="1" points="231.85,34 231.85,314"/>
	<polyline fill="none" stroke="rgb(229,229,229)" stroke-width="0.5" stroke-opacity="1" points="257.4,34 257.4,314"/>
	<polyline fill="none" stroke="rgb(229,229,229)" stroke-width="0.5" stroke-opacity="1" points="282.95,34 282.95,314"/>
	<polyline fill="none" stroke="rgb(229,229,229)" stroke-width="0.5" stroke-opacity="1" points="308.5,34 308.5,314"/>
	<polyline fill="none" stroke="rgb(229,229,229)" stroke-width="0.5" stroke-opacity="1" points="334.05,34 334.05,314"/>
	<polyline fill="none" stroke="rgb(229,229,229)" stroke-width="0.5" stroke-opacity="1" points="359.6,34 359.6,314"/>
	<polyline fill="none" stroke="rgb(229,229,229)" stroke-width="0.5" stroke-opacity="1" points="385.15,34 385.15,314"/>
	<polyline fill="none" stroke="rgb(229,229,229)" stroke-width="0.5" stroke-opacity="1" points="410.7,34 410.7,314"/>
	<polyline fill="none" stroke="rgb(229,229,229)" stroke-width="0.5" stroke-opacity="1" points="436.25,34 436.25,314"/>
	<polyline fill="none" stroke="rgb(229,229,229)" stroke-width="0.5" stroke-opacity="1" points="461.8,34 461.8,314"/>
	<polyline fill="none" stroke="rgb(229,229,229)" stroke-width="0.5" stroke-opacity="1" points="487.35,34 487.35,314"/>
	<polyline fill="none" stroke="rgb(229,229,229)" stroke-width="0.5" stroke-opacity="1" points="512.9,34 512.9,314"/>
	<polyline fill="none" stroke="rgb(229,229,229)" stroke-width="0.5" stroke-opacity="1" points="538.45,34 538.45,314"/>
	<polyline fill="none" stroke="rgb(229,229,229)" stroke-width="0.5" stroke-opacity="1" points="564,34 564,314"/>
	<polyline fill="none" stroke="rgb(229,229,229)" stroke-width="0.5" stroke-opacity="1" points="53,314 564,314"/>
	<polyline fill="none" stroke="rgb(229,229,229)" stroke-width="0.5" stroke-opacity="1" points="53,292.462 564,292.462"/>
	<polyline fill="none" stroke="rgb(229,229,229)" stroke-width="0.5" stroke-opacity="1" points="53,270.923 564,270.923"/>
	<polyline fill="none" stroke="rgb(229,229,229)" stroke-width="0.5" stroke-opacity="1" points="53,249.385 564,249.385"/>
	<polyline fill="none" stroke="rgb(229,229,229)" stroke-width="0.5" stroke-opacity="1" points="53,227.846 564,227.846"/>
	<polyline fill="none" stroke="rgb(229,229,229)" stroke-width="0.5" stroke-opacity="1" points="53,206.308 564,206.308"/>
	<polyline fill="none" stroke="rgb(229,229,229)" stroke-width="0.5" stroke-opacity="1" points="53,184.769 564,184.769"/>
	<polyline fill="none" stroke="rgb(229,229,229)" stroke-width="0.5" stroke-opacity="1" points="53,163.231 564,163.231"/>
	<polyline fill="none" stroke="rgb(229,229,229)" stroke-width="0.5" stroke-opacity="1" points="53,141.692 564,141.692"/>
	<polyline fill="none" stroke="rgb(229,229,229)" stroke-width="0.5" stroke-opacity="1" points="53,120.154 564,120.154"/>
	<polyline fill="none" stroke="rgb(229,229,229)" stroke-width="0.5" stroke-opacity="1" points="53,98.6154 564,98.6154"/>
	<polyline fill="none" stroke="rgb(229,229,229)" stroke-width="0.5" stroke-opacity="1" points="53,77.0769 564,77.0769"/>
	<polyline fill="none" stroke="rgb(229,229,229)" stroke-width="0.5" stroke-opacity="1" points="53,55.5385 564,55.5385"/>
	<polyline fill="none" stroke="rgb(229,229,229)" stroke-width="0.5" stroke-opacity="1" points="53,34 564,34"/>
	<polyline fill="none" stroke="rgb(192,192,192)" stroke-width="0.5" stroke-opacity="1" points="53,184.769 564,184.769"/>
	<polyline fill="none" stroke="rgb(0,0,0)" stroke-width="0.5" stroke-opacity="1" points="53,314 564,314"/>
	<polyline fill="none" stroke="rgb(0,0,0)" stroke-width="0.5" stroke-opacity="1" points="564,314 564,34"/>
	<polyline fill="none" stroke="rgb(0,0,0)" stroke-width="0.5" stroke-opacity="1" points="564,34 53,34"/>
	<polyline fill="none" stroke="rgb(0,0,0)" stroke-width="0.5" stroke-opacity="1" points="53,34 53,314"/>
	<polyline fill="none" stroke="rgb(0,0,0)" stroke-width="0.5" stroke-opacity="1" points="53,314 53,318"/>
	<polyline fill="none" stroke="rgb(0,0,0)" stroke-width="0.5" stroke-opacity="1" points="78.55,314 78.55,318"/>
	<polyline fill="none" stroke="rgb(0,0,0)" stroke-width="0.5" stroke-opacity="1" points="104.1,314 104.1,318"/>
	<polyline fill="none" stroke="rgb(0,0,0)" stroke-width="0.5" stroke-opacity="1" points="129.65,314 129.65,318"/>
	<polyline fill="none" stroke="rgb(0,0,0)" stroke-width="0.5" stroke-opacity="1" points="155.2,314 155.2,318"/>
	<polyline fill="none" stroke="rgb(0,0,0)" stroke-width="0.5" stroke-opacity="1" points="180.75,314 180.75,318"/>
	<polyline fill="none" stroke="rgb(0,0,0)" stroke-width="0.5" stroke-opacity="1" points="206.3,314 206.3,318"/>
	<polyline fill="none" stroke="rgb(0,0,0)" stroke-width="0.5" stroke-opacity="1" points="231.85,314 231.85,318"/>
	<polyline fill="none" stroke="rgb(0,0,0)" stroke-width="0.5" stroke-opacity="1" points="257.4,314 257.4,318"/>
	<polyline fill="none" stroke="rgb(0,0,0)" stroke-width="0.5" stroke-opacity="1" points="282.95,314 282.95,318"/>
	<polyline fill="none" stroke="rgb(0,0,0)" stroke-width="0.5" stroke-opacity="1" points="308.5,314 308.5,318"/>
	<polyline fill="none" stroke="rgb(0,0,0)" stroke-width="0.5" stroke-opacity="1" points="334.05,314 334.05,318"/>
	<polyline fill="none" stroke="rgb(0,0,0)" stroke-width="0.5" stroke-opacity="1" points="359.6,314 359.6,318"/>
	<polyline fill="none" stroke="rgb(0,0,0)" stroke-width="0.5" stroke-opacity="1" points="385.15,314 385.15,318"/>
	<polyline fill="none" stroke="rgb(0,0,0)" stroke-width="0.5" stroke-opacity="1" points="410.7,314 410.7,318"/>
	<polyline fill="none" stroke="rgb(0,0,0)" stroke-width="0.5" stroke-opacity="1" points="436.25,314 436.25,318"/>
	<polyline fill="none" stroke="rgb(0,0,0)" stroke-width="0.5" stroke-opacity="1" points="461.8,314 461.8,318"/>
	<polyline fill="none" stroke="rgb(0,0,0)" stroke-width="0.5" stroke-opacity="1" points="487.35,314 487.35,318"/>
	<polyline fill="none" stroke="rgb(0,0,0)" stroke-width="0.5" stroke-opacity="1" points="512.9,314 512.9,318"/>
	<polyline fill="none" stroke="rgb(0,0,0)" stroke-width="0.5" stroke-opacity="1" points="538.45,314 538.45,318"/>
	<polyline fill="none" stroke="rgb(0,0,0)" stroke-width="0.5" stroke-opacity="1" points="564,314 564,318"/>
	<polyline fill="none" stroke="rgb(0,0,0)" stroke-width="0.5" stroke-opacity="1" points="53,314 53,320.4"/>
	<text fill="rgb(0,0,0)" font-size="13" font-family="Arial" text-anchor="middle" dominant-baseline="central" x="53" y="329">0</text>
	<polyline fill="none" stroke="rgb(0,0,0)" stroke-width="0.5" stroke-opacity="1" points="180.75,314 180.75,320.4"/>
	<text fill="rgb(0,0,0)" font-size="13" font-family="Arial" text-anchor="middle" dominant-baseline="central" x="180.75" y="329">1</text>
	<polyline fill="none" stroke="rgb(0,0,0)" stroke-width="0.5" stroke-opacity="1" points="308.5,314 308.5,320.4"/>
	<text fill="rgb(0,0,0)" font-size="13" font-family="Arial" text-anchor="middle" dominant-baseline="central" x="308.5" y="329">2</text>
	<polyline fill="none" stroke="rgb(0,0,0)" stroke-width="0.5" stroke-opacity="1" points="436.25,314 436.25,320.4"/>
	<text fill="rgb(0,0,0)" font-size="13" font-family="Arial" text-anchor="middle" dominant-baseline="central" x="436.25" y="329">3</text>
	<polyline fill="none" stroke="rgb(0,0,0)" stroke-width="0.5" stroke-opacity="1" points="564,314 564,320.4"/>
	<text fill="rgb(0,0,0)" font-size="13" font-family="Arial" text-anchor="middle" dominant-baseline="central" x="564" y="329">4</text>
	<polyline fill="none" stroke="rgb(0,0,0)" stroke-width="0.5" stroke-opacity="1" points="49,314 53,314"/>
	<polyline fill="none" stroke="rgb(0,0,0)" stroke-width="0.5" stroke-opacity="1" points="49,292.462 53,292.462"/>
	<polyline fill="none" stroke="rgb(0,0,0)" stroke-width="0.5" stroke-opacity="1" points="49,270.923 53,270.923"/>
	<polyline fill="none" stroke="rgb(0,0,0)" stroke-width="0.5" stroke-opacity="1" points="49,249.385 53,249.385"/>
	<polyline fill="none" stroke="rgb(0,0,0)" stroke-width="0.5" stroke-opacity="1" points="49,227.846 53,227.846"/>
	<polyline fill="none" stroke="rgb(0,0,0)" stroke-width="0.5" stroke-opacity="1" points="49,206.308 53,206.308"/>
	<polyline fill="none" stroke="rgb(0,0,0)" stroke-width="0.5" stroke-opacity="1" points="49,184.769 53,184.769"/>
	<polyline fill="none" stroke="rgb(0,0,0)" stroke-width="0.5" stroke-opacity="1" points="49,163.231 53,163.231"/>
	<polyline fill="none" stroke="rgb(0,0,0)" stroke-width="0.5" stroke-opacity="1" points="49,141.692 53,141.692"/>
	<polyline fill="none" stroke="rgb(0,0,0)" stroke-width="0.5" stroke-opacity="1" points="49,120.154 53,120.154"/>
	<polyline fill="none" stroke="rgb(0,0,0)" stroke-width="0.5" stroke-opacity="1" points="49,98.6154 53,98.6154"/>
	<polyline fill="none" stroke="rgb(0,0,0)" stroke-width="0.5" stroke-opacity="1" points="49,77.0769 53,77.0769"/>
	<polyline fill="none" stroke="rgb(0,0,0)" stroke-width="0.5" stroke-opacity="1" points="49,55.5385 53,55.5385"/>
	<polyline fill="none" stroke="rgb(0,0,0)" stroke-width="0.5" stroke-opacity="1" points="49,34 53,34"/>
	<rect fill="none" stroke="none" stroke-dasharray="none" stroke-width="0.5" stroke-opacity="1" x="-6" y="307" width="51" height="14"/>
	<polyline fill="none" stroke="rgb(0,0,0)" stroke-width="0.5" stroke-opacity="1" points="46.6,314 53,314"/>
	<text fill="rgb(0,0,0)" font-size="13" font-family="Arial" text-anchor="end" dominant-baseline="central" x="45" y="314">-1.2</text>
	<polyline fill="none" stroke="rgb(0,0,0)" stroke-width="0.5" stroke-opacity="1" points="46.6,270.923 53,270.923"/>
	<text fill="rgb(0,0,0)" font-size="13" font-family="Arial" text-anchor="end" dominant-baseline="central" x="45" y="270.923">-0.8</text>
	<polyline fill="none" stroke="rgb(0,0,0)" stroke-width="0.5" stroke-opacity="1" points="46.6,227.846 53,227.846"/>
	<text fill="rgb(0,0,0)" font-size="13" font-family="Arial" text-anchor="end" dominant-baseline="central" x="45" y="227.846">-0.4</text>
	<polyline fill="none" stroke="rgb(0,0,0)" stroke-width="0.5" stroke-opacity="1" points="46.6,184.769 53,184.769"/>
	<text fill="rgb(0,0,0)" font-size="13" font-family="Arial" text-anchor="end" dominant-baseline="central" x="45" y="184.769">0.0</text>
	<polyline fill="none" stroke="rgb(0,0,0)" stroke-width="0.5" stroke-opacity="1" points="46.6,141.692 53,141.692"/>
	<text fill="rgb(0,0,0)" font-size="13" font-family="Arial" text-anchor="end" dominant-baseline="central" x="45" y="141.692">0.4</text>
	<polyline fill="none" stroke="rgb(0,0,0)" stroke-width="0.5" stroke-opacity="1" points="46.6,98.6154 53,98.6154"/>
	<text fill="rgb(0,0,0)" font-size="13" font-family="Arial" text-anchor="end" dominant-baseline="central" x="45" y="98.6154">0.8</text>
	<polyline fill="none" stroke="rgb(0,0,0)" stroke-width="0.5" stroke-opacity="1" points="46.6,55.5385 53,55.5385"/>
	<text fill="rgb(0,0,0)" font-size="13" font-family="Arial" text-anchor="end" dominant-baseline="central" x="45" y="55.5385">1.2</text>
	<text fill="rgb(0,0,0)" font-size="13" font-family="Arial" text-anchor="middle" dominant-baseline="central" x="308.5" y="348">Time [s]</text>
	<clipPath id="clipArea1">
		<rect x="53" y="34" width="512" height="280">
		</rect>
	</clipPath>
	<polyline fill="none" stroke="rgb(28,108,200)" stroke-width="1" stroke-opacity="1" clip-path="url(#clipArea1)" points="53,184.769 54.022,184.769 55.044,184.769 56.066,184.769 57.088,184.769 58.11,184.769 59.132,184.769 60.154,184.769 61.176,184.769 62.198,184.769 63.22,184.769 64.242,184.769 65.264,184.769 66.286,184.769 67.308,184.769 68.33,184.769 69.352,184.769 70.374,184.769 71.396,184.769 72.418,184.769 73.44,184.769 74.462,184.769 75.484,184.769 76.506,184.769 77.528,184.769 78.55,184.769 79.572,184.769 80.594,184.769 81.616,184.769 82.638,184.769 83.66,184.769 84.682,184.769 85.704,184.769 86.726,184.769 87.748,184.769 88.77,184.769 89.792,184.769 90.814,184.769 91.836,184.769 92.858,184.769 93.88,184.769 94.902,184.769 95.924,184.769 96.946,184.769 97.968,184.769 98.99,184.769 100.012,184.769 101.034,184.769 102.056,184.769 103.078,184.769 104.1,184.769 105.122,184.769 106.144,184.769 107.166,184.769 108.188,184.769 109.21,184.769 110.232,184.769 111.254,184.769 112.276,184.769 113.298,184.769 114.32,184.769 115.342,184.769 116.364,184.769 116.875,184.769 116.875,77.0769 117.386,77.0769 118.408,77.0769 119.43,77.0769 120.452,77.0769 121.474,77.0769 122.496,77.0769 123.518,77.0769 124.54,77.0769 125.562,77.0769 126.584,77.0769 127.606,77.0769 128.628,77.0769 129.65,77.0769 130.672,77.0769 131.694,77.0769 132.716,77.0769 133.738,77.0769 134.76,77.0769 135.782,77.0769 136.804,77.0769 137.826,77.0769 138.848,77.0769 139.87,77.0769 140.892,77.0769 141.914,77.0769 142.936,77.0769 143.958,77.0769 144.98,77.0769 146.002,77.0769 147.024,77.0769 148.046,77.0769 149.068,77.0769 150.09,77.0769 151.112,77.0769 152.134,77.0769 153.156,77.0769 154.178,77.0769 155.2,77.0769 156.222,77.0769 157.244,77.0769 158.266,77.0769 159.288,77.0769 160.31,77.0769 161.332,77.0769 162.354,77.0769 163.376,77.0769 164.398,77.0769 165.42,77.0769 166.442,77.0769 167.464,77.0769 168.486,77.0769 169.508,77.0769 170.53,77.0769 171.552,77.0769 172.574,77.0769 173.596,77.0769 174.618,77.0769 175.64,77.0769 176.662,77.0769 177.684,77.0769 178.706,77.0769 179.728,77.0769 180.75,77.0769 181.772,77.0769 182.794,77.0769 183.816,77.0769 184.838,77.0769 185.86,77.0769 186.882,77.0769 187.904,77.0769 188.926,77.0769 189.948,77.0769 190.97,77.0769 191.992,77.0769 193.014,77.0769 194.036,77.0769 195.058,77.0769 196.08,77.0769 197.102,77.0769 198.124,77.0769 199.146,77.0769 200.168,77.0769 201.19,77.0769 202.212,77.0769 203.234,77.0769 204.256,77.0769 205.278,77.0769 206.3,77.0769 207.322,77.0769 208.344,77.0769 209.366,77.0769 210.388,77.0769 211.41,77.0769 212.432,77.0769 213.454,77.0769 214.476,77.0769 215.498,77.0769 216.52,77.0769 217.542,77.0769 218.564,77.0769 219.586,77.0769 220.608,77.0769 221.63,77.0769 222.652,77.0769 223.674,77.0769 224.696,77.0769 225.718,77.0769 226.74,77.0769 227.762,77.0769 228.784,77.0769 229.806,77.0769 230.828,77.0769 231.85,77.0769 232.872,77.0769 233.894,77.0769 234.916,77.0769 235.938,77.0769 236.96,77.0769 237.982,77.0769 239.004,77.0769 240.026,77.0769 241.048,77.0769 242.07,77.0769 243.092,77.0769 244.114,77.0769 244.625,77.0769 244.625,184.769 245.136,184.769 246.158,184.769 247.18,184.769 248.202,184.769 249.224,184.769 250.246,184.769 251.268,184.769 252.29,184.769 253.312,184.769 254.334,184.769 255.356,184.769 256.378,184.769 257.4,184.769 258.422,184.769 259.444,184.769 260.466,184.769 261.488,184.769 262.51,184.769 263.532,184.769 264.554,184.769 265.576,184.769 266.598,184.769 267.62,184.769 268.642,184.769 269.664,184.769 270.686,184.769 271.708,184.769 272.73,184.769 273.752,184.769 274.774,184.769 275.796,184.769 276.818,184.769 277.84,184.769 278.862,184.769 279.884,184.769 280.906,184.769 281.928,184.769 282.95,184.769 283.972,184.769 284.994,184.769 286.016,184.769 287.038,184.769 288.06,184.769 289.082,184.769 290.104,184.769 291.126,184.769 292.148,184.769 293.17,184.769 294.192,184.769 295.214,184.769 296.236,184.769 297.258,184.769 298.28,184.769 299.302,184.769 300.324,184.769 301.346,184.769 302.368,184.769 303.39,184.769 304.412,184.769 305.434,184.769 306.456,184.769 307.478,184.769 308.5,184.769 309.522,184.769 310.544,184.769 311.566,184.769 312.588,184.769 313.61,184.769 314.632,184.769 315.654,184.769 316.676,184.769 317.544,184.769 317.544,292.462 317.698,292.462 318.72,292.462 319.742,292.462 320.764,292.462 321.514,292.462 321.514,292.462 321.786,292.462 322.808,292.462 323.83,292.462 324.852,292.462 325.874,292.462 326.896,292.462 327.918,292.462 328.94,292.462 329.962,292.462 330.984,292.462 332.006,292.462 333.028,292.462 334.05,292.462 335.072,292.462 336.094,292.462 337.116,292.462 338.138,292.462 339.16,292.462 340.182,292.462 341.204,292.462 342.226,292.462 343.248,292.462 344.27,292.462 345.292,292.462 346.314,292.462 347.336,292.462 348.358,292.462 349.38,292.462 350.402,292.462 351.424,292.462 352.446,292.462 353.468,292.462 354.49,292.462 355.512,292.462 356.534,292.462 357.556,292.462 358.578,292.462 359.6,292.462 360.622,292.462 361.644,292.462 362.666,292.462 363.688,292.462 364.71,292.462 365.732,292.462 366.754,292.462 367.776,292.462 368.798,292.462 369.82,292.462 370.842,292.462 371.864,292.462 372.886,292.462 373.908,292.462 374.93,292.462 375.952,292.462 376.974,292.462 377.996,292.462 379.018,292.462 380.04,292.462 381.062,292.462 382.084,292.462 383.106,292.462 384.128,292.462 385.15,292.462 386.172,292.462 387.194,292.462 388.216,292.462 389.238,292.462 390.26,292.462 391.282,292.462 392.304,292.462 393.326,292.462 394.348,292.462 395.37,292.462 396.392,292.462 397.414,292.462 398.436,292.462 399.458,292.462 400.48,292.462 401.502,292.462 402.524,292.462 403.546,292.462 404.568,292.462 405.59,292.462 406.612,292.462 407.634,292.462 408.656,292.462 409.678,292.462 410.7,292.462 411.722,292.462 412.744,292.462 413.766,292.462 414.788,292.462 415.81,292.462 416.832,292.462 417.854,292.462 418.876,292.462 419.898,292.462 420.92,292.462 421.942,292.462 422.964,292.462 423.986,292.462 425.008,292.462 426.03,292.462 427.052,292.462 428.074,292.462 429.096,292.462 430.118,292.462 431.14,292.462 432.162,292.462 433.184,292.462 434.206,292.462 435.228,292.462 436.25,292.462 437.272,292.462 438.294,292.462 439.316,292.462 440.338,292.462 441.36,292.462 442.382,292.462 443.404,292.462 444.426,292.462 445.294,292.462 445.294,184.769 445.448,184.769 446.47,184.769 447.492,184.769 448.514,184.769 449.536,184.769 450.558,184.769 451.58,184.769 452.602,184.769 453.624,184.769 454.646,184.769 455.668,184.769 456.69,184.769 457.712,184.769 458.734,184.769 459.756,184.769 460.778,184.769 461.8,184.769 462.822,184.769 463.844,184.769 464.866,184.769 465.888,184.769 466.91,184.769 467.932,184.769 468.954,184.769 469.976,184.769 470.998,184.769 472.02,184.769 473.042,184.769 474.064,184.769 475.086,184.769 476.108,184.769 477.13,184.769 478.152,184.769 479.174,184.769 480.196,184.769 481.218,184.769 482.24,184.769 483.262,184.769 484.284,184.769 485.306,184.769 486.328,184.769 487.35,184.769 488.372,184.769 489.394,184.769 490.416,184.769 491.438,184.769 492.46,184.769 493.482,184.769 494.504,184.769 495.526,184.769 496.548,184.769 497.57,184.769 498.592,184.769 499.504,184.769 499.504,184.769 499.614,184.769 500.636,184.769 501.658,184.769 502.68,184.769 503.702,184.769 504.724,184.769 505.746,184.769 506.768,184.769 507.79,184.769 508.812,184.769 509.834,184.769 510.856,184.769 511.878,184.769 512.9,184.769 513.922,184.769 514.944,184.769 515.966,184.769 516.988,184.769 518.01,184.769 519.032,184.769 520.054,184.769 521.076,184.769 522.098,184.769 523.12,184.769 524.142,184.769 525.164,184.769 526.186,184.769 527.208,184.769 528.23,184.769 529.252,184.769 530.274,184.769 531.296,184.769 532.318,184.769 533.34,184.769 534.362,184.769 535.384,184.769 536.406,184.769 537.428,184.769 538.45,184.769 539.472,184.769 540.494,184.769 541.516,184.769 542.538,184.769 543.56,184.769 544.582,184.769 545.604,184.769 546.626,184.769 547.648,184.769 548.67,184.769 549.692,184.769 550.714,184.769 551.736,184.769 552.758,184.769 553.78,184.769 554.802,184.769 555.824,184.769 556.846,184.769 557.868,184.769 558.89,184.769 559.912,184.769 560.934,184.769 561.956,184.769 562.978,184.769 564,184.769 564,184.769"/>
	<rect fill="rgb(255,255,255)" stroke="none" stroke-opacity="0.7" transform="translate(120.5, 17.5) translate(0, 0) scale(1,-1)" x="-67.5" y="-8.5" width="135" height="17"/>
	<polyline fill="none" stroke="rgb(28,108,200)" stroke-width="1" stroke-opacity="1" points="53,18 83,18"/>
	<text fill="rgb(0,0,0)" font-size="13" font-family="Arial" text-anchor="start" dominant-baseline="central" x="88" y="18">kinematicPTP.y[1]</text>
</svg>
